# MagicaVoxel @ ephtracy

# material
mtllib wu.mtl
usemtl palette

# normals
vn -1 0 0
vn 1 0 0
vn 0 0 1
vn 0 0 -1
vn 0 -1 0
vn 0 1 0

# texcoords
vt 0.490234 0.5
vt 0.958984 0.5

# verts and faces
v -2 0 0.5
v -2 0 -0.5
v -2 2 1.5
v -2 2 0.5
v -2 2 -0.5
v -2 2 -1.5
v -2 5 1.5
v -2 5 -1.5
v -2 8 1.5
v -2 8 -1.5
f -7/1/1 -9/1/1 -10/1/1
f -6/1/1 -9/1/1 -7/1/1
f -4/1/1 -7/1/1 -8/1/1
f -4/1/1 -5/1/1 -6/1/1
f -4/1/1 -6/1/1 -7/1/1
f -3/1/1 -5/1/1 -4/1/1
f -2/2/1 -3/2/1 -4/2/1
f -1/2/1 -3/2/1 -2/2/1
v 1 0 0.5
v 1 0 -0.5
v 1 2 0.5
v 1 2 -0.5
f -2/1/1 -3/1/1 -4/1/1
f -1/1/1 -3/1/1 -2/1/1
v -1 0 0.5
v -1 0 -0.5
v -1 2 0.5
v -1 2 -0.5
f -4/1/2 -3/1/2 -2/1/2
f -2/1/2 -3/1/2 -1/1/2
v 2 0 0.5
v 2 0 -0.5
v 2 2 1.5
v 2 2 0.5
v 2 2 -0.5
v 2 2 -1.5
v 2 5 1.5
v 2 5 -1.5
v 2 8 1.5
v 2 8 -1.5
f -10/1/2 -9/1/2 -7/1/2
f -7/1/2 -9/1/2 -6/1/2
f -8/1/2 -7/1/2 -4/1/2
f -6/1/2 -5/1/2 -4/1/2
f -7/1/2 -6/1/2 -4/1/2
f -4/1/2 -5/1/2 -3/1/2
f -4/2/2 -3/2/2 -2/2/2
f -2/2/2 -3/2/2 -1/2/2
v -2 2 1.5
v -2 5 1.5
v -2 8 1.5
v 2 2 1.5
v 2 5 1.5
v 2 8 1.5
f -3/1/3 -5/1/3 -6/1/3
f -2/2/3 -4/2/3 -5/2/3
f -2/1/3 -5/1/3 -3/1/3
f -1/2/3 -4/2/3 -2/2/3
v -2 0 0.5
v -2 2 0.5
v -1 0 0.5
v -1 2 0.5
v 1 0 0.5
v 1 2 0.5
v 2 0 0.5
v 2 2 0.5
f -6/1/3 -7/1/3 -8/1/3
f -5/1/3 -7/1/3 -6/1/3
f -2/1/3 -3/1/3 -4/1/3
f -1/1/3 -3/1/3 -2/1/3
v -2 0 -0.5
v -2 2 -0.5
v -1 0 -0.5
v -1 2 -0.5
v 1 0 -0.5
v 1 2 -0.5
v 2 0 -0.5
v 2 2 -0.5
f -8/1/4 -7/1/4 -6/1/4
f -6/1/4 -7/1/4 -5/1/4
f -4/1/4 -3/1/4 -2/1/4
f -2/1/4 -3/1/4 -1/1/4
v -2 2 -1.5
v -2 5 -1.5
v -2 8 -1.5
v 2 2 -1.5
v 2 5 -1.5
v 2 8 -1.5
f -6/1/4 -5/1/4 -3/1/4
f -5/2/4 -4/2/4 -2/2/4
f -3/1/4 -5/1/4 -2/1/4
f -2/2/4 -4/2/4 -1/2/4
v -2 0 0.5
v -1 0 0.5
v 1 0 0.5
v 2 0 0.5
v -2 0 -0.5
v -1 0 -0.5
v 1 0 -0.5
v 2 0 -0.5
f -4/1/5 -7/1/5 -8/1/5
f -3/1/5 -7/1/5 -4/1/5
f -2/1/5 -5/1/5 -6/1/5
f -1/1/5 -5/1/5 -2/1/5
v -2 2 1.5
v 2 2 1.5
v -2 2 0.5
v -1 2 0.5
v 1 2 0.5
v 2 2 0.5
v -2 2 -0.5
v -1 2 -0.5
v 1 2 -0.5
v 2 2 -0.5
v -2 2 -1.5
v 2 2 -1.5
f -10/1/5 -11/1/5 -12/1/5
f -9/1/5 -11/1/5 -10/1/5
f -8/1/5 -11/1/5 -9/1/5
f -7/1/5 -11/1/5 -8/1/5
f -5/1/5 -8/1/5 -9/1/5
f -4/1/5 -8/1/5 -5/1/5
f -2/1/5 -5/1/5 -6/1/5
f -2/1/5 -3/1/5 -4/1/5
f -2/1/5 -4/1/5 -5/1/5
f -1/1/5 -3/1/5 -2/1/5
v -2 8 1.5
v 2 8 1.5
v -2 8 -1.5
v 2 8 -1.5
f -4/2/6 -3/2/6 -2/2/6
f -2/2/6 -3/2/6 -1/2/6
